Coordinates
version=1
nRows=12
nColumns=33
inDegrees=yes

Units are S.I. units (second, meters, Newtons, ...)
Angles are in degrees.

endheader
time	ground_thorax_rot_x	ground_thorax_rot_y	ground_thorax_rot_z	ground_thorax_tx	ground_thorax_ty	ground_thorax_tz	clav_prot_r	clav_elev_r	scapula_abduction_r	scapula_elevation_r	scapula_upward_rot_r	scapula_winging_r	shoulder_elv_r	plane_of_elev_r	axial_rot_r	elbow_flexion_r	pro_sup_r	wrist_flex_r	wrist_dev_r	clav_prot_l	clav_elev_l	scapula_abduction_l	scapula_elevation_l	scapula_upward_rot_l	scapula_winging_l	shoulder_elv_l	plane_of_elev_l	axial_rot_l	elbow_flexion_l	pro_sup_l	wrist_flex_l	wrist_dev_l
      8.11000000	     38.02165840	      6.31867140	     11.34069830	    -79.28854575	    782.93922637	     10.20888399	     16.87894469	     40.44332099	     45.00000000	     41.90605334	    -28.37816928	  -1520.49938083	  -2454.55558384	     33.96960008	     23.02233909	   2168.84579907	     33.67572214	     17.66382503	     13.82941467	      7.10612856	    -45.00000000	    -45.00000000	     45.00000000	    -13.14423803	    807.79691320	  -2263.87249742	    138.44476980	    179.99999979	   -717.56875703	     33.03640203	     11.11146520	    -18.96430529
      8.12000000	     37.97746252	      6.06076585	     11.09006360	    -79.53476552	    783.43614464	     10.26549640	     16.44266807	     39.87597071	     45.00000000	     41.75347232	    -27.87906789	  -1520.56567326	  -2454.51833161	     33.91249897	     23.41436528	   2168.83056642	     33.12739338	     17.77371738	     13.83428998	      7.08953444	    -45.00000000	    -45.00000000	     45.00000000	    -12.73135031	    807.94404875	  -2263.73190459	    138.21454798	    179.99999979	   -717.65524951	     32.84241775	     11.24512161	    -19.21592024
      8.13000000	     37.97158292	      5.90777457	     10.97090081	    -80.08492025	    783.96086296	     10.29877419	     16.37157036	     40.09622767	     45.00000000	     41.71401745	    -27.70887929	  -1520.72980293	  -2454.47313983	     33.98576562	     24.03097990	   2168.94323641	     32.78040139	     17.68471150	     13.72895756	      6.87626948	    -45.00000000	    -45.00000000	     45.00000000	    -12.27811998	    807.96632892	  -2263.66087804	    138.32475950	    179.99999979	   -717.68071277	     32.72459099	     11.09439518	    -19.13406335
      8.14000000	     38.09415195	      5.82455133	     11.02744035	    -80.94588642	    784.52518896	     10.31652513	     16.28965699	     40.41346573	     45.00000000	     42.16776242	    -27.79914820	  -1520.60940279	  -2454.57719510	     33.83252472	     24.76925122	   2169.38836537	     32.31328245	     17.73123006	     13.51107132	      6.80929805	    -45.00000000	    -45.00000000	     45.00000000	    -12.17971735	    808.14928735	  -2263.75380109	    138.39344080	    179.99999979	   -717.34891198	     32.55823387	     11.05959346	    -19.27001562
      8.15000000	     38.12109036	      5.76638857	     11.02744525	    -82.10794091	    785.12788108	     10.31478241	     16.34899578	     40.79637845	     45.00000000	     42.38477349	    -28.00256829	  -1520.59794459	  -2454.39856317	     33.81490099	     25.36441426	   2169.63179182	     31.79881815	     17.71082404	     13.29009281	      6.75588243	    -45.00000000	    -45.00000000	     45.00000000	    -12.02943803	    808.27252994	  -2263.59626881	    138.38370989	    179.99999979	   -717.33864146	     32.35269691	     11.00068224	    -19.29466640
      8.16000000	     38.15626923	      5.61589020	     10.96349906	    -83.54711068	    785.77372117	     10.29628755	     16.17053298	     40.76004474	     45.00000000	     42.55712811	    -27.94620562	  -1520.69901932	  -2454.29434115	     33.72919341	     25.93454279	   2169.95729849	     31.36205860	     17.75971762	     13.12374653	      6.62531968	    -45.00000000	    -45.00000000	     45.00000000	    -11.61563761	    808.52706883	  -2263.52932455	    138.40774223	    179.99999979	   -717.11632023	     32.09771592	     10.96145524	    -19.38816538
      8.17000000	     38.21841861	      5.45741142	     10.88743930	    -85.22773113	    786.45788205	     10.24875720	     16.14699484	     40.94985787	     45.00000000	     42.83913563	    -27.99317001	  -1520.74970224	  -2454.16343395	     33.72615676	     26.29943785	   2170.24824301	     30.91483417	     17.79069691	     12.91658584	      6.51336644	    -45.00000000	    -45.00000000	     45.00000000	    -11.32851359	    808.75291808	  -2263.40056909	    138.43005226	    179.99999979	   -716.98679921	     31.82651139	     10.93073869	    -19.44391303
      8.18000000	     38.27844044	      5.34166662	     10.88284230	    -87.11988215	    787.19249982	     10.17413417	     16.28785338	     41.30509504	     45.00000000	     43.14187873	    -28.27203384	  -1520.80593201	  -2453.99642046	     33.81385566	     26.34700597	   2170.43200098	     30.43303695	     17.79798287	     12.70877865	      6.48124757	    -45.00000000	    -45.00000000	     45.00000000	    -11.20947964	    808.97731606	  -2263.19778279	    138.36099904	    179.99999979	   -716.92244514	     31.51469995	     10.89871793	    -19.46913856
      8.19000000	     38.34949215	      5.62320172	     11.26320679	    -89.20562625	    787.98247996	     10.06143713	     17.47522742	     41.60766009	     45.00000000	     43.73415632	    -29.84381632	  -1520.70838693	  -2453.68640551	     34.15047784	     24.92984013	   2170.45828143	     29.52337567	     17.72193589	     12.47272171	      6.81821899	    -45.00000000	    -45.00000000	     45.00000000	    -11.94696669	    809.33617024	  -2262.97258673	    138.06479191	    179.99999979	   -716.74525115	     30.92043211	     10.82945850	    -19.45450597
      8.20000000	     38.43113469	      5.22415635	     10.95580826	    -91.47758812	    788.85507440	      9.92130526	     16.35126661	     41.70359033	     45.00000000	     43.83361595	    -29.11780997	  -1520.89384923	  -2453.56321328	     33.94157337	     25.09388065	   2170.71413676	     29.44561002	     17.92122159	     12.56735994	      6.44351831	    -45.00000000	    -45.00000000	     45.00000000	    -11.05580222	    809.59489653	  -2262.82118699	    138.26734910	    179.99999979	   -716.47764856	     30.69987016	     10.87185906	    -19.60483385
      8.21000000	     38.53089571	      5.13315442	     10.94053102	    -93.96422158	    789.83214736	      9.75768511	     16.42790844	     42.00503439	     45.00000000	     44.13746356	    -29.17011116	  -1521.05257878	  -2453.44831763	     33.89343694	     24.69947612	   2170.85234651	     29.31603369	     18.02445387	     12.43359074	      6.38503522	    -45.00000000	    -45.00000000	     45.00000000	    -10.91212712	    809.89704493	  -2262.60315917	    138.25060389	    179.99999979	   -716.24563646	     30.49115110	     10.82215515	    -19.71389097
      8.22000000	     38.63312758	      5.08806505	     10.97764974	    -96.69353155	    790.94703741	      9.58901640	     16.36427950	     42.13229245	     45.00000000	     44.52255659	    -29.37469900	  -1521.18025979	  -2453.32362607	     33.82128395	     24.12537794	   2170.98789440	     29.18299393	     18.15618103	     12.36042745	      6.33679840	    -45.00000000	    -45.00000000	     45.00000000	    -10.81531126	    810.24067020	  -2262.42329001	    138.26852728	    179.99999979	   -715.92565952	     30.28577238	     10.78000087	    -19.86935539
